<?xml version="1.0" encoding="utf-8"?>
<!-- Generator: Adobe Illustrator 24.3.0, SVG Export Plug-In . SVG Version: 6.00 Build 0)  -->
<svg version="1.1" id="_x30_" xmlns="http://www.w3.org/2000/svg" xmlns:xlink="http://www.w3.org/1999/xlink" x="0px" y="0px"
	 viewBox="0 0 864.3 1152.2" style="enable-background:new 0 0 864.3 1152.2;" xml:space="preserve">
<style type="text/css">
	.st0{fill:none;stroke:#000000;stroke-width:0.7087;stroke-linecap:round;stroke-linejoin:round;stroke-miterlimit:10;}
	.st1{fill:#FF0000;}
	.st2{font-family:'ArialMT';}
	.st3{font-size:11px;}
	.st4{fill:#333333;}
	.st5{fill:#FF4444;}
	.st6{font-family:'DejaVuSansMono';}
	.st7{font-size:18.2302px;}
</style>
<g>
	<g id="LINE">
		<line class="st0" x1="591.7" y1="648.1" x2="591.7" y2="99.1"/>
	</g>
	<g id="LINE_1_">
		<line class="st0" x1="572.6" y1="99.1" x2="572.6" y2="648.1"/>
	</g>
	<g id="LINE_2_">
		<line class="st0" x1="528.1" y1="90.1" x2="528.1" y2="643.1"/>
	</g>
	<g id="LINE_3_">
		<line class="st0" x1="618.1" y1="72.1" x2="546.1" y2="72.1"/>
	</g>
	<g id="LINE_4_">
		<line class="st0" x1="636.1" y1="643.1" x2="636.1" y2="90.1"/>
	</g>
	<g id="LINE_5_">
		<line class="st0" x1="741.6" y1="823.8" x2="638.7" y2="652.4"/>
	</g>
	<g id="LINE_6_">
		<line class="st0" x1="744.1" y1="972.1" x2="744.1" y2="833.1"/>
	</g>
	<g id="LINE_7_">
		<line class="st0" x1="726.9" y1="972.1" x2="744.1" y2="972.1"/>
	</g>
	<g id="LINE_8_">
		<line class="st0" x1="726.9" y1="1044.1" x2="726.9" y2="972.1"/>
	</g>
	<g id="LINE_9_">
		<line class="st0" x1="744.1" y1="1044.1" x2="726.9" y2="1044.1"/>
	</g>
	<g id="LINE_10_">
		<line class="st0" x1="744.1" y1="1080.1" x2="744.1" y2="1044.1"/>
	</g>
	<g id="LINE_11_">
		<line class="st0" x1="420.1" y1="1080.1" x2="744.1" y2="1080.1"/>
	</g>
	<g id="LINE_12_">
		<line class="st0" x1="420.1" y1="1044.1" x2="420.1" y2="1080.1"/>
	</g>
	<g id="LINE_13_">
		<line class="st0" x1="437.4" y1="1044.1" x2="420.1" y2="1044.1"/>
	</g>
	<g id="LINE_14_">
		<line class="st0" x1="437.4" y1="972.1" x2="437.4" y2="1044.1"/>
	</g>
	<g id="LINE_15_">
		<line class="st0" x1="420.1" y1="972.1" x2="437.4" y2="972.1"/>
	</g>
	<g id="LINE_16_">
		<line class="st0" x1="420.1" y1="833.1" x2="420.1" y2="972.1"/>
	</g>
	<g id="LINE_17_">
		<line class="st0" x1="525.6" y1="652.4" x2="422.7" y2="823.8"/>
	</g>
	<g id="ARC">
		<path class="st0" d="M572.6,648.1c0,5.3,4.3,9.5,9.5,9.5s9.5-4.3,9.5-9.5"/>
	</g>
	<g id="ARC_1_">
		<path class="st0" d="M591.7,99.1c0-5.3-4.3-9.5-9.5-9.5s-9.5,4.3-9.5,9.5"/>
	</g>
	<g id="ARC_2_">
		<path class="st0" d="M525.6,652.4c1.7-2.8,2.6-6,2.6-9.3"/>
	</g>
	<g id="ARC_3_">
		<path class="st0" d="M546.1,72.1c-9.9,0-18,8.1-18,18"/>
	</g>
	<g id="ARC_4_">
		<path class="st0" d="M636.1,90.1c0-9.9-8.1-18-18-18"/>
	</g>
	<g id="ARC_5_">
		<path class="st0" d="M636.1,643.1c0,3.3,0.9,6.5,2.6,9.3"/>
	</g>
	<g id="ARC_6_">
		<path class="st0" d="M744.1,833.1c0-3.3-0.9-6.5-2.6-9.3"/>
	</g>
	<g id="ARC_7_">
		<path class="st0" d="M422.7,823.8c-1.7,2.8-2.6,6-2.6,9.3"/>
	</g>
</g>
<g>
	<g id="LINE_29_">
		<line class="st0" x1="55.8" y1="1079.4" x2="379.8" y2="1079.4"/>
	</g>
	<g id="LINE_28_">
		<line class="st0" x1="55.8" y1="1043.4" x2="55.8" y2="1079.4"/>
	</g>
	<g id="LINE_27_">
		<line class="st0" x1="73.1" y1="1043.4" x2="55.8" y2="1043.4"/>
	</g>
	<g id="LINE_26_">
		<line class="st0" x1="73.1" y1="971.4" x2="73.1" y2="1043.4"/>
	</g>
	<g id="LINE_25_">
		<line class="st0" x1="55.8" y1="971.4" x2="73.1" y2="971.4"/>
	</g>
	<g id="LINE_24_">
		<line class="st0" x1="55.8" y1="935.4" x2="55.8" y2="971.4"/>
	</g>
	<g id="LINE_23_">
		<line class="st0" x1="379.8" y1="935.4" x2="55.8" y2="935.4"/>
	</g>
	<g id="LINE_22_">
		<line class="st0" x1="379.8" y1="971.4" x2="379.8" y2="935.4"/>
	</g>
	<g id="LINE_21_">
		<line class="st0" x1="362.5" y1="971.4" x2="379.8" y2="971.4"/>
	</g>
	<g id="LINE_20_">
		<line class="st0" x1="362.5" y1="1043.4" x2="362.5" y2="971.4"/>
	</g>
	<g id="LINE_19_">
		<line class="st0" x1="379.8" y1="1043.4" x2="362.5" y2="1043.4"/>
	</g>
	<g id="LINE_18_">
		<line class="st0" x1="379.8" y1="1079.4" x2="379.8" y2="1043.4"/>
	</g>
</g>
<g>
	<g id="LINE_41_">
		<line class="st0" x1="73.8" y1="787.8" x2="56.5" y2="787.8"/>
	</g>
	<g id="LINE_40_">
		<line class="st0" x1="73.8" y1="751.8" x2="73.8" y2="787.8"/>
	</g>
	<g id="LINE_39_">
		<line class="st0" x1="361.8" y1="751.8" x2="73.8" y2="751.8"/>
	</g>
	<g id="LINE_38_">
		<line class="st0" x1="361.8" y1="787.8" x2="361.8" y2="751.8"/>
	</g>
	<g id="LINE_37_">
		<line class="st0" x1="379.1" y1="787.8" x2="361.8" y2="787.8"/>
	</g>
	<g id="LINE_36_">
		<line class="st0" x1="379.1" y1="859.8" x2="379.1" y2="787.8"/>
	</g>
	<g id="LINE_35_">
		<line class="st0" x1="361.8" y1="859.8" x2="379.1" y2="859.8"/>
	</g>
	<g id="LINE_34_">
		<line class="st0" x1="361.8" y1="895.8" x2="361.8" y2="859.8"/>
	</g>
	<g id="LINE_33_">
		<line class="st0" x1="73.8" y1="895.8" x2="361.8" y2="895.8"/>
	</g>
	<g id="LINE_32_">
		<line class="st0" x1="73.8" y1="859.8" x2="73.8" y2="895.8"/>
	</g>
	<g id="LINE_31_">
		<line class="st0" x1="56.5" y1="859.8" x2="73.8" y2="859.8"/>
	</g>
	<g id="LINE_30_">
		<line class="st0" x1="56.5" y1="787.8" x2="56.5" y2="859.8"/>
	</g>
</g>
<g>
	<g id="LINE_53_">
		<line class="st0" x1="73.8" y1="604.1" x2="56.5" y2="604.1"/>
	</g>
	<g id="LINE_52_">
		<line class="st0" x1="73.8" y1="568.1" x2="73.8" y2="604.1"/>
	</g>
	<g id="LINE_51_">
		<line class="st0" x1="361.8" y1="568.1" x2="73.8" y2="568.1"/>
	</g>
	<g id="LINE_50_">
		<line class="st0" x1="361.8" y1="604.1" x2="361.8" y2="568.1"/>
	</g>
	<g id="LINE_49_">
		<line class="st0" x1="379.1" y1="604.1" x2="361.8" y2="604.1"/>
	</g>
	<g id="LINE_48_">
		<line class="st0" x1="379.1" y1="676.1" x2="379.1" y2="604.1"/>
	</g>
	<g id="LINE_47_">
		<line class="st0" x1="361.8" y1="676.1" x2="379.1" y2="676.1"/>
	</g>
	<g id="LINE_46_">
		<line class="st0" x1="361.8" y1="712.1" x2="361.8" y2="676.1"/>
	</g>
	<g id="LINE_45_">
		<line class="st0" x1="73.8" y1="712.1" x2="361.8" y2="712.1"/>
	</g>
	<g id="LINE_44_">
		<line class="st0" x1="73.8" y1="676.1" x2="73.8" y2="712.1"/>
	</g>
	<g id="LINE_43_">
		<line class="st0" x1="56.5" y1="676.1" x2="73.8" y2="676.1"/>
	</g>
	<g id="LINE_42_">
		<line class="st0" x1="56.5" y1="604.1" x2="56.5" y2="676.1"/>
	</g>
</g>
<text transform="matrix(1 0 0 1 567.7324 1007.4)" class="st1 st2 st3">PiSpy</text>
<text transform="matrix(1 0 0 1 501.4324 1020.6)" class="st1 st2 st3">Licensed under CERN-OHL-S v2</text>
<text transform="matrix(1 0 0 1 467.1324 1033.8)" class="st1 st2 st3">Source location https://github.com/gpask/PiSpy</text>
<g transform="translate(-614.09 -142.78)">
	<g>
		<path class="st4" d="M1156.3,1065.2v1.6v33.5v1.6h1.6h76.5h1.6v-1.6v-35.1h-3.2l-0.1,33.5h-73.2v-30.3h62.3v-3.2H1158H1156.3z"/>
		<path class="st4" d="M1175,1084c0-2.8-0.3-4.8-0.9-6c-0.6-1.2-1.5-1.8-2.8-1.8c-1.3,0-2.2,0.6-2.8,1.8c-0.6,1.2-0.8,3.2-0.8,6
			c0,2.8,0.3,4.7,0.8,5.9c0.6,1.2,1.5,1.8,2.8,1.8c1.3,0,2.2-0.6,2.8-1.8C1174.8,1088.7,1175,1086.8,1175,1084 M1177.7,1084
			c0,3.3-0.5,5.7-1.6,7.4c-1,1.6-2.6,2.4-4.8,2.4c-2.1,0-3.7-0.8-4.8-2.4c-1-1.6-1.6-4.1-1.6-7.4c0-3.3,0.5-5.8,1.6-7.4
			c1-1.6,2.6-2.4,4.8-2.4c2.1,0,3.7,0.8,4.8,2.4C1177.2,1078.2,1177.7,1080.7,1177.7,1084"/>
		<path class="st4" d="M1192,1075.2v2.6c-0.8-0.5-1.6-0.9-2.3-1.1c-0.8-0.3-1.6-0.4-2.4-0.4c-1.2,0-2.2,0.3-2.9,0.8
			c-0.7,0.6-1.1,1.3-1.1,2.3c0,0.8,0.2,1.5,0.7,1.9c0.5,0.4,1.3,0.8,2.6,1.1l1.3,0.3c1.8,0.4,3.1,1.1,3.9,1.9
			c0.8,0.9,1.2,2.1,1.2,3.6c0,1.8-0.6,3.2-1.7,4.1c-1.1,0.9-2.7,1.4-4.9,1.4c-0.9,0-1.8-0.1-2.7-0.3c-0.9-0.2-1.8-0.5-2.7-0.8v-2.7
			c1,0.6,1.9,1.1,2.7,1.4c0.9,0.3,1.7,0.4,2.6,0.4c1.3,0,2.3-0.3,3-0.9c0.7-0.6,1.1-1.4,1.1-2.4c0-0.9-0.2-1.7-0.7-2.2
			c-0.5-0.5-1.3-0.9-2.6-1.2l-1.4-0.3c-1.8-0.4-3-1-3.8-1.8c-0.8-0.8-1.2-1.9-1.2-3.2c0-1.7,0.6-3,1.7-4.1c1.1-1,2.7-1.5,4.5-1.5
			c0.7,0,1.5,0.1,2.3,0.3C1190.3,1074.6,1191.1,1074.8,1192,1075.2"/>
		<path class="st4" d="M1196.5,1074.5h2.6v7.7h7v-7.7h2.6v18.9h-2.6v-9h-7v9h-2.6V1074.5"/>
	</g>
	<path class="st5" d="M1210.4,1074.5h2.5l1.8,15.3l2.2-10.2h2.7l2.2,10.2l6.1-29.4h2.5l-7.1,32.9h-2.4l-2.6-11.2l-2.6,11.2h-2.4
		L1210.4,1074.5"/>
	<text transform="matrix(1 0 0 1 1157.7692 1123.0023)" class="st4 st6 st7">US002095</text>
</g>
</svg>
