<?xml version="1.0" encoding="utf-8"?>
<!-- Generator: Adobe Illustrator 25.2.0, SVG Export Plug-In . SVG Version: 6.00 Build 0)  -->
<svg version="1.1" id="_x30_" xmlns="http://www.w3.org/2000/svg" xmlns:xlink="http://www.w3.org/1999/xlink" x="0px" y="0px"
	 viewBox="0 0 864.3 1152.2" style="enable-background:new 0 0 864.3 1152.2;" xml:space="preserve">
<style type="text/css">
	.st0{fill:none;stroke:#000000;stroke-width:0.7087;stroke-linecap:round;stroke-linejoin:round;stroke-miterlimit:10;}
</style>
<g>
	<g id="LINE">
		<line class="st0" x1="591.7" y1="648.1" x2="591.7" y2="99.1"/>
	</g>
	<g id="LINE_1_">
		<line class="st0" x1="572.6" y1="99.1" x2="572.6" y2="648.1"/>
	</g>
	<g id="LINE_2_">
		<line class="st0" x1="528.1" y1="90.1" x2="528.1" y2="643.1"/>
	</g>
	<g id="LINE_3_">
		<line class="st0" x1="618.1" y1="72.1" x2="546.1" y2="72.1"/>
	</g>
	<g id="LINE_4_">
		<line class="st0" x1="636.1" y1="643.1" x2="636.1" y2="90.1"/>
	</g>
	<g id="LINE_5_">
		<line class="st0" x1="741.6" y1="823.8" x2="638.7" y2="652.4"/>
	</g>
	<g id="LINE_6_">
		<line class="st0" x1="744.1" y1="972.1" x2="744.1" y2="833.1"/>
	</g>
	<g id="LINE_7_">
		<line class="st0" x1="726.9" y1="972.1" x2="744.1" y2="972.1"/>
	</g>
	<g id="LINE_8_">
		<line class="st0" x1="726.9" y1="1044.1" x2="726.9" y2="972.1"/>
	</g>
	<g id="LINE_9_">
		<line class="st0" x1="744.1" y1="1044.1" x2="726.9" y2="1044.1"/>
	</g>
	<g id="LINE_10_">
		<line class="st0" x1="744.1" y1="1080.1" x2="744.1" y2="1044.1"/>
	</g>
	<g id="LINE_11_">
		<line class="st0" x1="420.1" y1="1080.1" x2="744.1" y2="1080.1"/>
	</g>
	<g id="LINE_12_">
		<line class="st0" x1="420.1" y1="1044.1" x2="420.1" y2="1080.1"/>
	</g>
	<g id="LINE_13_">
		<line class="st0" x1="437.4" y1="1044.1" x2="420.1" y2="1044.1"/>
	</g>
	<g id="LINE_14_">
		<line class="st0" x1="437.4" y1="972.1" x2="437.4" y2="1044.1"/>
	</g>
	<g id="LINE_15_">
		<line class="st0" x1="420.1" y1="972.1" x2="437.4" y2="972.1"/>
	</g>
	<g id="LINE_16_">
		<line class="st0" x1="420.1" y1="833.1" x2="420.1" y2="972.1"/>
	</g>
	<g id="LINE_17_">
		<line class="st0" x1="525.6" y1="652.4" x2="422.7" y2="823.8"/>
	</g>
	<g id="ARC">
		<path class="st0" d="M572.6,648.1c0,5.3,4.3,9.5,9.5,9.5s9.5-4.3,9.5-9.5"/>
	</g>
	<g id="ARC_1_">
		<path class="st0" d="M591.7,99.1c0-5.3-4.3-9.5-9.5-9.5s-9.5,4.3-9.5,9.5"/>
	</g>
	<g id="ARC_2_">
		<path class="st0" d="M525.6,652.4c1.7-2.8,2.6-6,2.6-9.3"/>
	</g>
	<g id="ARC_3_">
		<path class="st0" d="M546.1,72.1c-9.9,0-18,8.1-18,18"/>
	</g>
	<g id="ARC_4_">
		<path class="st0" d="M636.1,90.1c0-9.9-8.1-18-18-18"/>
	</g>
	<g id="ARC_5_">
		<path class="st0" d="M636.1,643.1c0,3.3,0.9,6.5,2.6,9.3"/>
	</g>
	<g id="ARC_6_">
		<path class="st0" d="M744.1,833.1c0-3.3-0.9-6.5-2.6-9.3"/>
	</g>
	<g id="ARC_7_">
		<path class="st0" d="M422.7,823.8c-1.7,2.8-2.6,6-2.6,9.3"/>
	</g>
</g>
<g>
	<g id="LINE_29_">
		<line class="st0" x1="55.8" y1="1079.4" x2="379.8" y2="1079.4"/>
	</g>
	<g id="LINE_28_">
		<line class="st0" x1="55.8" y1="1043.4" x2="55.8" y2="1079.4"/>
	</g>
	<g id="LINE_27_">
		<line class="st0" x1="73.1" y1="1043.4" x2="55.8" y2="1043.4"/>
	</g>
	<g id="LINE_26_">
		<line class="st0" x1="73.1" y1="971.4" x2="73.1" y2="1043.4"/>
	</g>
	<g id="LINE_25_">
		<line class="st0" x1="55.8" y1="971.4" x2="73.1" y2="971.4"/>
	</g>
	<g id="LINE_24_">
		<line class="st0" x1="55.8" y1="935.4" x2="55.8" y2="971.4"/>
	</g>
	<g id="LINE_23_">
		<line class="st0" x1="379.8" y1="935.4" x2="55.8" y2="935.4"/>
	</g>
	<g id="LINE_22_">
		<line class="st0" x1="379.8" y1="971.4" x2="379.8" y2="935.4"/>
	</g>
	<g id="LINE_21_">
		<line class="st0" x1="362.5" y1="971.4" x2="379.8" y2="971.4"/>
	</g>
	<g id="LINE_20_">
		<line class="st0" x1="362.5" y1="1043.4" x2="362.5" y2="971.4"/>
	</g>
	<g id="LINE_19_">
		<line class="st0" x1="379.8" y1="1043.4" x2="362.5" y2="1043.4"/>
	</g>
	<g id="LINE_18_">
		<line class="st0" x1="379.8" y1="1079.4" x2="379.8" y2="1043.4"/>
	</g>
</g>
<g>
	<g id="LINE_41_">
		<line class="st0" x1="73.8" y1="787.8" x2="56.5" y2="787.8"/>
	</g>
	<g id="LINE_40_">
		<line class="st0" x1="73.8" y1="751.8" x2="73.8" y2="787.8"/>
	</g>
	<g id="LINE_39_">
		<line class="st0" x1="361.8" y1="751.8" x2="73.8" y2="751.8"/>
	</g>
	<g id="LINE_38_">
		<line class="st0" x1="361.8" y1="787.8" x2="361.8" y2="751.8"/>
	</g>
	<g id="LINE_37_">
		<line class="st0" x1="379.1" y1="787.8" x2="361.8" y2="787.8"/>
	</g>
	<g id="LINE_36_">
		<line class="st0" x1="379.1" y1="859.8" x2="379.1" y2="787.8"/>
	</g>
	<g id="LINE_35_">
		<line class="st0" x1="361.8" y1="859.8" x2="379.1" y2="859.8"/>
	</g>
	<g id="LINE_34_">
		<line class="st0" x1="361.8" y1="895.8" x2="361.8" y2="859.8"/>
	</g>
	<g id="LINE_33_">
		<line class="st0" x1="73.8" y1="895.8" x2="361.8" y2="895.8"/>
	</g>
	<g id="LINE_32_">
		<line class="st0" x1="73.8" y1="859.8" x2="73.8" y2="895.8"/>
	</g>
	<g id="LINE_31_">
		<line class="st0" x1="56.5" y1="859.8" x2="73.8" y2="859.8"/>
	</g>
	<g id="LINE_30_">
		<line class="st0" x1="56.5" y1="787.8" x2="56.5" y2="859.8"/>
	</g>
</g>
<g>
	<g id="LINE_53_">
		<line class="st0" x1="73.8" y1="604.1" x2="56.5" y2="604.1"/>
	</g>
	<g id="LINE_52_">
		<line class="st0" x1="73.8" y1="568.1" x2="73.8" y2="604.1"/>
	</g>
	<g id="LINE_51_">
		<line class="st0" x1="361.8" y1="568.1" x2="73.8" y2="568.1"/>
	</g>
	<g id="LINE_50_">
		<line class="st0" x1="361.8" y1="604.1" x2="361.8" y2="568.1"/>
	</g>
	<g id="LINE_49_">
		<line class="st0" x1="379.1" y1="604.1" x2="361.8" y2="604.1"/>
	</g>
	<g id="LINE_48_">
		<line class="st0" x1="379.1" y1="676.1" x2="379.1" y2="604.1"/>
	</g>
	<g id="LINE_47_">
		<line class="st0" x1="361.8" y1="676.1" x2="379.1" y2="676.1"/>
	</g>
	<g id="LINE_46_">
		<line class="st0" x1="361.8" y1="712.1" x2="361.8" y2="676.1"/>
	</g>
	<g id="LINE_45_">
		<line class="st0" x1="73.8" y1="712.1" x2="361.8" y2="712.1"/>
	</g>
	<g id="LINE_44_">
		<line class="st0" x1="73.8" y1="676.1" x2="73.8" y2="712.1"/>
	</g>
	<g id="LINE_43_">
		<line class="st0" x1="56.5" y1="676.1" x2="73.8" y2="676.1"/>
	</g>
	<g id="LINE_42_">
		<line class="st0" x1="56.5" y1="604.1" x2="56.5" y2="676.1"/>
	</g>
</g>
</svg>
