<?xml version="1.0" encoding="utf-8"?>
<!-- Generator: Adobe Illustrator 25.2.0, SVG Export Plug-In . SVG Version: 6.00 Build 0)  -->
<svg version="1.1" id="Layer_1" xmlns="http://www.w3.org/2000/svg" xmlns:xlink="http://www.w3.org/1999/xlink" x="0px" y="0px"
	 viewBox="0 0 864 864" style="enable-background:new 0 0 864 864;" xml:space="preserve">
<style type="text/css">
	.st0{fill:none;stroke:#010101;stroke-width:0.7087;stroke-linejoin:bevel;stroke-miterlimit:10;}
	.st1{fill:#FF0000;}
	.st2{font-family:'ArialMT';}
	.st3{font-size:11px;}
</style>
<g>
	<g id="_0">
		<line class="st0" x1="276.5" y1="103.5" x2="276.5" y2="738"/>
		<line class="st0" x1="295.6" y1="738" x2="295.6" y2="103.5"/>
		<line class="st0" x1="520" y1="702" x2="520" y2="846"/>
		<line class="st0" x1="503" y1="702" x2="520" y2="702"/>
		<line class="st0" x1="503" y1="846" x2="503" y2="702"/>
		<line class="st0" x1="69.1" y1="846" x2="503" y2="846"/>
		<line class="st0" x1="69.1" y1="702" x2="69.1" y2="846"/>
		<line class="st0" x1="52" y1="702" x2="69.1" y2="702"/>
		<line class="st0" x1="52" y1="846" x2="52" y2="702"/>
		<line class="st0" x1="38.5" y1="846" x2="52" y2="846"/>
		<line class="st0" x1="38.5" y1="564.3" x2="38.5" y2="846"/>
		<line class="st0" x1="223.5" y1="41.8" x2="40.7" y2="552.1"/>
		<line class="st0" x1="314.7" y1="18" x2="257.4" y2="18"/>
		<line class="st0" x1="531.4" y1="552.1" x2="348.5" y2="41.8"/>
		<line class="st0" x1="533.5" y1="846" x2="533.5" y2="564.3"/>
		<line class="st0" x1="520" y1="846" x2="533.5" y2="846"/>
		<path class="st0" d="M285.5,80.5c-5.4,0.2-10.1,3.6-12,8.6s-0.7,10.7,3,14.5"/>
		<path class="st0" d="M276.5,738c0,5.3,4.3,9.5,9.6,9.5s9.5-4.2,9.5-9.5"/>
		<path class="st0" d="M295.6,103.5c3.8-3.8,5-9.5,3-14.5c-1.9-5-6.6-8.3-12-8.6"/>
		<path class="st0" d="M286.6,80.5c-0.4-0.1-0.8-0.1-1.1,0"/>
		<path class="st0" d="M40.7,552.1c-1.4,3.9-2.2,8-2.2,12.2"/>
		<path class="st0" d="M257.4,18c-15.2,0-28.8,9.6-33.9,23.8"/>
		<path class="st0" d="M348.5,41.8C343.4,27.6,329.9,18,314.7,18"/>
		<path class="st0" d="M533.5,564.3c0-4.2-0.7-8.3-2.1-12.2"/>
	</g>
	<g id="_0_1_">
		<line class="st0" x1="825.5" y1="846" x2="825.5" y2="414"/>
		<line class="st0" x1="546.5" y1="846" x2="825.5" y2="846"/>
		<line class="st0" x1="546.5" y1="738" x2="546.5" y2="846"/>
		<line class="st0" x1="681.5" y1="738" x2="546.5" y2="738"/>
		<line class="st0" x1="681.5" y1="720.9" x2="681.5" y2="738"/>
		<line class="st0" x1="546.5" y1="720.9" x2="681.5" y2="720.9"/>
		<line class="st0" x1="546.5" y1="666" x2="546.5" y2="720.9"/>
		<line class="st0" x1="741.6" y1="426.5" x2="555.3" y2="642.5"/>
		<line class="st0" x1="825.5" y1="414" x2="768.9" y2="414"/>
		<path class="st0" d="M555.3,642.5c-5.7,6.5-8.8,14.8-8.8,23.5"/>
		<path class="st0" d="M768.9,414c-10.5,0-20.5,4.6-27.3,12.5"/>
	</g>
	<g id="_0_2_">
		<line class="st0" x1="546.5" y1="111.1" x2="546.5" y2="543.1"/>
		<line class="st0" x1="825.5" y1="111.1" x2="546.5" y2="111.1"/>
		<line class="st0" x1="825.5" y1="219.1" x2="825.5" y2="111.1"/>
		<line class="st0" x1="690.5" y1="219.1" x2="825.5" y2="219.1"/>
		<line class="st0" x1="690.5" y1="236.1" x2="690.5" y2="219.1"/>
		<line class="st0" x1="825.5" y1="236.1" x2="690.5" y2="236.1"/>
		<line class="st0" x1="825.5" y1="291.1" x2="825.5" y2="236.1"/>
		<line class="st0" x1="630.4" y1="530.5" x2="816.7" y2="314.5"/>
		<line class="st0" x1="546.5" y1="543.1" x2="603.1" y2="543.1"/>
		<path class="st0" d="M816.7,314.5c5.7-6.5,8.8-14.8,8.8-23.5"/>
		<path class="st0" d="M603.1,543.1c10.5,0,20.5-4.6,27.3-12.5"/>
	</g>
</g>
<text transform="matrix(1 0 0 1 181.251 804.7427)"><tspan x="0" y="0" class="st1 st2 st3">PiSpy</tspan><tspan x="-66.3" y="13.2" class="st1 st2 st3">Licensed under CERN-OHL-S v2</tspan><tspan x="-100.6" y="26.4" class="st1 st2 st3">Source location https://github.com/gpask/PiSpy</tspan></text>
</svg>
