<?xml version="1.0" encoding="utf-8"?>
<!-- Generator: Adobe Illustrator 24.3.0, SVG Export Plug-In . SVG Version: 6.00 Build 0)  -->
<svg version="1.1" id="Layer_1" xmlns="http://www.w3.org/2000/svg" xmlns:xlink="http://www.w3.org/1999/xlink" x="0px" y="0px"
	 viewBox="0 0 864 864" style="enable-background:new 0 0 864 864;" xml:space="preserve">
<style type="text/css">
	.st0{fill:none;stroke:#010101;stroke-width:0.7087;stroke-linejoin:bevel;stroke-miterlimit:10;}
	.st1{fill:#FF0000;}
	.st2{font-family:'ArialMT';}
	.st3{font-size:11px;}
	.st4{fill:#333333;}
	.st5{fill:#FF4444;}
	.st6{font-family:'DejaVuSansMono';}
	.st7{font-size:16.3003px;}
</style>
<g>
	<g id="_0">
		<line class="st0" x1="276.5" y1="103.5" x2="276.5" y2="738"/>
		<line class="st0" x1="295.6" y1="738" x2="295.6" y2="103.5"/>
		<line class="st0" x1="520" y1="702" x2="520" y2="846"/>
		<line class="st0" x1="503" y1="702" x2="520" y2="702"/>
		<line class="st0" x1="503" y1="846" x2="503" y2="702"/>
		<line class="st0" x1="69.1" y1="846" x2="503" y2="846"/>
		<line class="st0" x1="69.1" y1="702" x2="69.1" y2="846"/>
		<line class="st0" x1="52" y1="702" x2="69.1" y2="702"/>
		<line class="st0" x1="52" y1="846" x2="52" y2="702"/>
		<line class="st0" x1="38.5" y1="846" x2="52" y2="846"/>
		<line class="st0" x1="38.5" y1="564.3" x2="38.5" y2="846"/>
		<line class="st0" x1="223.5" y1="41.8" x2="40.7" y2="552.1"/>
		<line class="st0" x1="314.7" y1="18" x2="257.4" y2="18"/>
		<line class="st0" x1="531.4" y1="552.1" x2="348.5" y2="41.8"/>
		<line class="st0" x1="533.5" y1="846" x2="533.5" y2="564.3"/>
		<line class="st0" x1="520" y1="846" x2="533.5" y2="846"/>
		<path class="st0" d="M285.5,80.5c-5.4,0.2-10.1,3.6-12,8.6s-0.7,10.7,3,14.5"/>
		<path class="st0" d="M276.5,738c0,5.3,4.3,9.5,9.6,9.5s9.5-4.2,9.5-9.5"/>
		<path class="st0" d="M295.6,103.5c3.8-3.8,5-9.5,3-14.5c-1.9-5-6.6-8.3-12-8.6"/>
		<path class="st0" d="M286.6,80.5c-0.4-0.1-0.8-0.1-1.1,0"/>
		<path class="st0" d="M40.7,552.1c-1.4,3.9-2.2,8-2.2,12.2"/>
		<path class="st0" d="M257.4,18c-15.2,0-28.8,9.6-33.9,23.8"/>
		<path class="st0" d="M348.5,41.8C343.4,27.6,329.9,18,314.7,18"/>
		<path class="st0" d="M533.5,564.3c0-4.2-0.7-8.3-2.1-12.2"/>
	</g>
	<g id="_0_1_">
		<line class="st0" x1="825.5" y1="846" x2="825.5" y2="414"/>
		<line class="st0" x1="546.5" y1="846" x2="825.5" y2="846"/>
		<line class="st0" x1="546.5" y1="738" x2="546.5" y2="846"/>
		<line class="st0" x1="681.5" y1="738" x2="546.5" y2="738"/>
		<line class="st0" x1="681.5" y1="720.9" x2="681.5" y2="738"/>
		<line class="st0" x1="546.5" y1="720.9" x2="681.5" y2="720.9"/>
		<line class="st0" x1="546.5" y1="666" x2="546.5" y2="720.9"/>
		<line class="st0" x1="741.6" y1="426.5" x2="555.3" y2="642.5"/>
		<line class="st0" x1="825.5" y1="414" x2="768.9" y2="414"/>
		<path class="st0" d="M555.3,642.5c-5.7,6.5-8.8,14.8-8.8,23.5"/>
		<path class="st0" d="M768.9,414c-10.5,0-20.5,4.6-27.3,12.5"/>
	</g>
	<g id="_0_2_">
		<line class="st0" x1="546.5" y1="111.1" x2="546.5" y2="543.1"/>
		<line class="st0" x1="825.5" y1="111.1" x2="546.5" y2="111.1"/>
		<line class="st0" x1="825.5" y1="219.1" x2="825.5" y2="111.1"/>
		<line class="st0" x1="690.5" y1="219.1" x2="825.5" y2="219.1"/>
		<line class="st0" x1="690.5" y1="236.1" x2="690.5" y2="219.1"/>
		<line class="st0" x1="825.5" y1="236.1" x2="690.5" y2="236.1"/>
		<line class="st0" x1="825.5" y1="291.1" x2="825.5" y2="236.1"/>
		<line class="st0" x1="630.4" y1="530.5" x2="816.7" y2="314.5"/>
		<line class="st0" x1="546.5" y1="543.1" x2="603.1" y2="543.1"/>
		<path class="st0" d="M816.7,314.5c5.7-6.5,8.8-14.8,8.8-23.5"/>
		<path class="st0" d="M603.1,543.1c10.5,0,20.5-4.6,27.3-12.5"/>
	</g>
</g>
<text transform="matrix(1 0 0 1 181.251 804.7427)" class="st1 st2 st3">PiSpy</text>
<text transform="matrix(1 0 0 1 114.951 817.9427)" class="st1 st2 st3">Licensed under CERN-OHL-S v2</text>
<text transform="matrix(1 0 0 1 80.651 831.1427)" class="st1 st2 st3">Source location https://github.com/gpask/PiSpy</text>
<g transform="translate(-614.09 -142.78)">
	<g>
		<path class="st4" d="M982.9,924.2v1.4v30v1.4h1.4h68.4h1.4v-1.4v-31.4h-2.8l-0.1,30h-65.5v-27.1h55.7v-2.9h-57.2H982.9z"/>
		<path class="st4" d="M999.6,941c0-2.5-0.3-4.3-0.8-5.3c-0.5-1.1-1.3-1.6-2.5-1.6c-1.2,0-2,0.5-2.5,1.6c-0.5,1.1-0.8,2.8-0.8,5.3
			c0,2.5,0.3,4.2,0.8,5.3c0.5,1.1,1.3,1.6,2.5,1.6c1.2,0,2-0.5,2.5-1.6C999.3,945.2,999.6,943.4,999.6,941 M1002,941
			c0,2.9-0.5,5.1-1.4,6.6c-0.9,1.4-2.3,2.2-4.3,2.2s-3.3-0.7-4.3-2.2c-0.9-1.4-1.4-3.6-1.4-6.6c0-3,0.5-5.2,1.4-6.6
			c0.9-1.4,2.4-2.2,4.3-2.2c1.9,0,3.3,0.7,4.3,2.2C1001.5,935.8,1002,938,1002,941"/>
		<path class="st4" d="M1014.7,933.1v2.3c-0.7-0.4-1.4-0.8-2.1-1c-0.7-0.2-1.4-0.3-2.1-0.3c-1.1,0-1.9,0.3-2.6,0.8
			c-0.6,0.5-0.9,1.2-0.9,2c0,0.7,0.2,1.3,0.6,1.7c0.4,0.4,1.2,0.7,2.3,1l1.2,0.3c1.6,0.4,2.7,1,3.5,1.7s1.1,1.9,1.1,3.2
			c0,1.6-0.5,2.8-1.5,3.7c-1,0.8-2.4,1.3-4.3,1.3c-0.8,0-1.6-0.1-2.4-0.3c-0.8-0.2-1.6-0.4-2.4-0.8v-2.4c0.9,0.6,1.7,1,2.5,1.2
			c0.8,0.3,1.6,0.4,2.3,0.4c1.2,0,2.1-0.3,2.7-0.8c0.6-0.5,1-1.2,1-2.2c0-0.8-0.2-1.5-0.7-1.9c-0.4-0.4-1.2-0.8-2.3-1l-1.2-0.3
			c-1.6-0.4-2.7-0.9-3.4-1.6c-0.7-0.7-1.1-1.7-1.1-2.9c0-1.5,0.5-2.7,1.5-3.6c1-0.9,2.4-1.4,4.1-1.4c0.6,0,1.3,0.1,2,0.2
			C1013.2,932.6,1014,932.8,1014.7,933.1"/>
		<path class="st4" d="M1018.8,932.5h2.3v6.9h6.3v-6.9h2.3v16.9h-2.3v-8h-6.3v8h-2.3V932.5"/>
	</g>
	<path class="st5" d="M1031.2,932.5h2.2l1.6,13.7l1.9-9.1h2.4l1.9,9.1l5.5-26.3h2.2l-6.4,29.5h-2.2l-2.3-10l-2.3,10h-2.2
		L1031.2,932.5"/>
	<text transform="matrix(1 0 0 1 984.1432 975.8582)" class="st4 st6 st7">US002095</text>
</g>
</svg>
