<?xml version="1.0" encoding="utf-8"?>
<!-- Generator: Adobe Illustrator 24.3.0, SVG Export Plug-In . SVG Version: 6.00 Build 0)  -->
<svg version="1.1" id="Layer_1" xmlns="http://www.w3.org/2000/svg" xmlns:xlink="http://www.w3.org/1999/xlink" x="0px" y="0px"
	 viewBox="0 0 864 864" style="enable-background:new 0 0 864 864;" xml:space="preserve">
<style type="text/css">
	.st0{fill:none;stroke:#010101;stroke-width:0.7087;stroke-linejoin:bevel;stroke-miterlimit:10;}
</style>
<g>
	<g id="_0">
		<line class="st0" x1="276.48" y1="103.54" x2="276.48" y2="738"/>
		<line class="st0" x1="295.56" y1="738" x2="295.56" y2="103.54"/>
		<line class="st0" x1="520.05" y1="702" x2="520.05" y2="846"/>
		<line class="st0" x1="502.99" y1="702" x2="520.05" y2="702"/>
		<line class="st0" x1="502.99" y1="846" x2="502.99" y2="702"/>
		<line class="st0" x1="69.12" y1="846" x2="502.99" y2="846"/>
		<line class="st0" x1="69.12" y1="702" x2="69.12" y2="846"/>
		<line class="st0" x1="52.05" y1="702" x2="69.12" y2="702"/>
		<line class="st0" x1="52.05" y1="846" x2="52.05" y2="702"/>
		<line class="st0" x1="38.52" y1="846" x2="52.05" y2="846"/>
		<line class="st0" x1="38.52" y1="564.26" x2="38.52" y2="846"/>
		<line class="st0" x1="223.49" y1="41.83" x2="40.68" y2="552.1"/>
		<line class="st0" x1="314.71" y1="18" x2="257.4" y2="18"/>
		<line class="st0" x1="531.43" y1="552.1" x2="348.55" y2="41.83"/>
		<line class="st0" x1="533.52" y1="846" x2="533.52" y2="564.26"/>
		<line class="st0" x1="520.05" y1="846" x2="533.52" y2="846"/>
		<path class="st0" d="M285.48,80.5c-5.4,0.22-10.08,3.6-12.02,8.57c-1.94,4.97-0.72,10.66,3.02,14.47"/>
		<path class="st0" d="M276.48,738c0,5.26,4.32,9.5,9.58,9.5s9.5-4.25,9.5-9.5"/>
		<path class="st0" d="M295.56,103.54c3.82-3.82,4.97-9.5,3.02-14.47c-1.87-4.97-6.62-8.35-11.95-8.57"/>
		<path class="st0" d="M286.63,80.5c-0.43-0.07-0.79-0.07-1.15,0"/>
		<path class="st0" d="M40.68,552.1c-1.44,3.89-2.16,7.99-2.16,12.17"/>
		<path class="st0" d="M257.4,18c-15.19,0-28.8,9.58-33.91,23.83"/>
		<path class="st0" d="M348.55,41.83C343.44,27.58,329.9,18,314.71,18"/>
		<path class="st0" d="M533.52,564.26c0-4.18-0.72-8.28-2.09-12.17"/>
	</g>
	<g id="_0_1_">
		<line class="st0" x1="825.48" y1="846" x2="825.48" y2="414"/>
		<line class="st0" x1="546.48" y1="846" x2="825.48" y2="846"/>
		<line class="st0" x1="546.48" y1="738" x2="546.48" y2="846"/>
		<line class="st0" x1="681.48" y1="738" x2="546.48" y2="738"/>
		<line class="st0" x1="681.48" y1="720.94" x2="681.48" y2="738"/>
		<line class="st0" x1="546.48" y1="720.94" x2="681.48" y2="720.94"/>
		<line class="st0" x1="546.48" y1="666" x2="546.48" y2="720.94"/>
		<line class="st0" x1="741.6" y1="426.53" x2="555.27" y2="642.53"/>
		<line class="st0" x1="825.48" y1="414" x2="768.89" y2="414"/>
		<path class="st0" d="M555.27,642.53c-5.69,6.48-8.78,14.83-8.78,23.47"/>
		<path class="st0" d="M768.89,414c-10.51,0-20.45,4.61-27.29,12.53"/>
	</g>
	<g id="_0_2_">
		<line class="st0" x1="546.48" y1="111.06" x2="546.48" y2="543.06"/>
		<line class="st0" x1="825.48" y1="111.06" x2="546.48" y2="111.06"/>
		<line class="st0" x1="825.48" y1="219.06" x2="825.48" y2="111.06"/>
		<line class="st0" x1="690.48" y1="219.06" x2="825.48" y2="219.06"/>
		<line class="st0" x1="690.48" y1="236.12" x2="690.48" y2="219.06"/>
		<line class="st0" x1="825.48" y1="236.12" x2="690.48" y2="236.12"/>
		<line class="st0" x1="825.48" y1="291.06" x2="825.48" y2="236.12"/>
		<line class="st0" x1="630.36" y1="530.53" x2="816.7" y2="314.53"/>
		<line class="st0" x1="546.48" y1="543.06" x2="603.07" y2="543.06"/>
		<path class="st0" d="M816.7,314.53c5.69-6.48,8.78-14.83,8.78-23.47"/>
		<path class="st0" d="M603.07,543.06c10.51,0,20.45-4.61,27.29-12.53"/>
	</g>
</g>
</svg>
