<?xml version="1.0" encoding="utf-8"?>
<!-- Generator: Adobe Illustrator 24.3.0, SVG Export Plug-In . SVG Version: 6.00 Build 0)  -->
<svg version="1.1" id="_x30_" xmlns="http://www.w3.org/2000/svg" xmlns:xlink="http://www.w3.org/1999/xlink" x="0px" y="0px"
	 viewBox="0 0 288 288" style="enable-background:new 0 0 288 288;" xml:space="preserve">
<style type="text/css">
	.st0{fill:none;stroke:#000000;stroke-miterlimit:10;}
</style>
<g>
	<g id="LINE">
		<line class="st0" x1="90.01" y1="215.99" x2="72.01" y2="215.99"/>
	</g>
	<g id="LINE_1_">
		<line class="st0" x1="90.01" y1="162" x2="72.01" y2="162"/>
	</g>
	<g id="LINE_2_">
		<line class="st0" x1="72.01" y1="162" x2="72.01" y2="215.99"/>
	</g>
	<g id="LINE_3_">
		<line class="st0" x1="90.01" y1="188.99" x2="90.01" y2="215.99"/>
	</g>
	<g id="LINE_4_">
		<line class="st0" x1="90.01" y1="162" x2="90.01" y2="188.99"/>
	</g>
	<g id="ARC">
		<path class="st0" d="M183.59,157.5c0-1.99-1.61-3.6-3.6-3.6c-1.99,0-3.6,1.61-3.6,3.6"/>
	</g>
	<g id="ARC_1_">
		<path class="st0" d="M176.39,157.5c0,1.99,1.61,3.6,3.6,3.6c1.99,0,3.6-1.61,3.6-3.6"/>
	</g>
	<g id="ARC_2_">
		<path class="st0" d="M183.59,220.49c0-1.99-1.61-3.6-3.6-3.6c-1.99,0-3.6,1.61-3.6,3.6"/>
	</g>
	<g id="ARC_3_">
		<path class="st0" d="M176.39,220.49c0,1.99,1.61,3.6,3.6,3.6c1.99,0,3.6-1.61,3.6-3.6"/>
	</g>
	<g id="ARC_4_">
		<path class="st0" d="M219.59,220.49c0-1.99-1.61-3.6-3.6-3.6c-1.99,0-3.6,1.61-3.6,3.6"/>
	</g>
	<g id="ARC_5_">
		<path class="st0" d="M212.39,220.49c0,1.99,1.61,3.6,3.6,3.6c1.99,0,3.6-1.61,3.6-3.6"/>
	</g>
	<g id="ARC_6_">
		<path class="st0" d="M219.59,157.5c0-1.99-1.61-3.6-3.6-3.6c-1.99,0-3.6,1.61-3.6,3.6"/>
	</g>
	<g id="ARC_7_">
		<path class="st0" d="M212.39,157.5c0,1.99,1.61,3.6,3.6,3.6c1.99,0,3.6-1.61,3.6-3.6"/>
	</g>
	<g id="LINE_5_">
		<line class="st0" x1="90.01" y1="117.01" x2="72.01" y2="117.01"/>
	</g>
	<g id="LINE_6_">
		<line class="st0" x1="90.01" y1="81.01" x2="72.01" y2="81.01"/>
	</g>
	<g id="LINE_7_">
		<line class="st0" x1="72.01" y1="81.01" x2="72.01" y2="117.01"/>
	</g>
	<g id="LINE_8_">
		<line class="st0" x1="90.01" y1="99.01" x2="90.01" y2="117.01"/>
	</g>
	<g id="LINE_9_">
		<line class="st0" x1="215.99" y1="117.01" x2="197.99" y2="117.01"/>
	</g>
	<g id="LINE_10_">
		<line class="st0" x1="215.99" y1="81.01" x2="197.99" y2="81.01"/>
	</g>
	<g id="LINE_11_">
		<line class="st0" x1="197.99" y1="99.01" x2="197.99" y2="117.01"/>
	</g>
	<g id="LINE_12_">
		<line class="st0" x1="215.99" y1="81.01" x2="215.99" y2="117.01"/>
	</g>
	<g id="LINE_13_">
		<line class="st0" x1="90.01" y1="81.01" x2="90.01" y2="99.01"/>
	</g>
	<g id="LINE_14_">
		<line class="st0" x1="197.99" y1="81.01" x2="197.99" y2="99.01"/>
	</g>
	<g id="LINE_15_">
		<line class="st0" x1="40.7" y1="36.02" x2="40.52" y2="36.02"/>
	</g>
	<g id="ARC_8_">
		<path class="st0" d="M40.7,36.02c0-2.58-2.09-4.68-4.68-4.68c-2.58,0-4.68,2.09-4.68,4.68"/>
	</g>
	<g id="ARC_9_">
		<path class="st0" d="M31.34,36.02c0,2.58,2.09,4.68,4.68,4.68c2.58,0,4.68-2.09,4.68-4.68"/>
	</g>
	<g id="ARC_10_">
		<path class="st0" d="M256.66,36.02c0-2.58-2.09-4.68-4.68-4.68s-4.68,2.09-4.68,4.68"/>
	</g>
	<g id="ARC_11_">
		<path class="st0" d="M247.3,36.02c0,2.58,2.09,4.68,4.68,4.68s4.68-2.09,4.68-4.68"/>
	</g>
	<g id="ARC_12_">
		<path class="st0" d="M40.7,251.98c0-2.58-2.09-4.68-4.68-4.68c-2.58,0-4.68,2.09-4.68,4.68"/>
	</g>
	<g id="ARC_13_">
		<path class="st0" d="M31.34,251.98c0,2.58,2.09,4.68,4.68,4.68c2.58,0,4.68-2.09,4.68-4.68"/>
	</g>
	<g id="ARC_14_">
		<path class="st0" d="M256.66,251.98c0-2.58-2.09-4.68-4.68-4.68s-4.68,2.09-4.68,4.68"/>
	</g>
	<g id="ARC_15_">
		<path class="st0" d="M247.3,251.98c0,2.58,2.09,4.68,4.68,4.68s4.68-2.09,4.68-4.68"/>
	</g>
	<g id="LINE_16_">
		<line class="st0" x1="18.02" y1="36.02" x2="18.02" y2="251.98"/>
	</g>
	<g id="LINE_17_">
		<line class="st0" x1="36.02" y1="18.02" x2="251.98" y2="18.02"/>
	</g>
	<g id="LINE_18_">
		<line class="st0" x1="269.98" y1="251.98" x2="269.98" y2="36.02"/>
	</g>
	<g id="LINE_19_">
		<line class="st0" x1="36.02" y1="269.98" x2="251.98" y2="269.98"/>
	</g>
	<g id="ARC_16_">
		<path class="st0" d="M36.02,18.02c-9.94,0-18,8.06-18,18"/>
	</g>
	<g id="ARC_17_">
		<path class="st0" d="M18.02,251.98c0,9.94,8.06,18,18,18"/>
	</g>
	<g id="ARC_18_">
		<path class="st0" d="M251.98,269.98c9.94,0,18-8.06,18-18"/>
	</g>
	<g id="ARC_19_">
		<path class="st0" d="M269.98,36.02c0-9.94-8.06-18-18-18"/>
	</g>
</g>
</svg>
