<?xml version="1.0" encoding="utf-8"?>
<!-- Generator: Adobe Illustrator 25.2.0, SVG Export Plug-In . SVG Version: 6.00 Build 0)  -->
<svg version="1.1" id="_x30_" xmlns="http://www.w3.org/2000/svg" xmlns:xlink="http://www.w3.org/1999/xlink" x="0px" y="0px"
	 viewBox="0 0 288 288" style="enable-background:new 0 0 288 288;" xml:space="preserve">
<style type="text/css">
	.st0{fill:none;stroke:#000000;stroke-miterlimit:10;}
	.st1{fill:#FF0000;}
	.st2{font-family:'ArialMT';}
	.st3{font-size:10px;}
</style>
<g>
	<g id="LINE">
		<line class="st0" x1="90" y1="216" x2="72" y2="216"/>
	</g>
	<g id="LINE_1_">
		<line class="st0" x1="90" y1="162" x2="72" y2="162"/>
	</g>
	<g id="LINE_2_">
		<line class="st0" x1="72" y1="162" x2="72" y2="216"/>
	</g>
	<g id="LINE_3_">
		<line class="st0" x1="90" y1="189" x2="90" y2="216"/>
	</g>
	<g id="LINE_4_">
		<line class="st0" x1="90" y1="162" x2="90" y2="189"/>
	</g>
	<g id="ARC">
		<path class="st0" d="M183.6,157.5c0-2-1.6-3.6-3.6-3.6s-3.6,1.6-3.6,3.6"/>
	</g>
	<g id="ARC_1_">
		<path class="st0" d="M176.4,157.5c0,2,1.6,3.6,3.6,3.6s3.6-1.6,3.6-3.6"/>
	</g>
	<g id="ARC_2_">
		<path class="st0" d="M183.6,220.5c0-2-1.6-3.6-3.6-3.6s-3.6,1.6-3.6,3.6"/>
	</g>
	<g id="ARC_3_">
		<path class="st0" d="M176.4,220.5c0,2,1.6,3.6,3.6,3.6s3.6-1.6,3.6-3.6"/>
	</g>
	<g id="ARC_4_">
		<path class="st0" d="M219.6,220.5c0-2-1.6-3.6-3.6-3.6s-3.6,1.6-3.6,3.6"/>
	</g>
	<g id="ARC_5_">
		<path class="st0" d="M212.4,220.5c0,2,1.6,3.6,3.6,3.6s3.6-1.6,3.6-3.6"/>
	</g>
	<g id="ARC_6_">
		<path class="st0" d="M219.6,157.5c0-2-1.6-3.6-3.6-3.6s-3.6,1.6-3.6,3.6"/>
	</g>
	<g id="ARC_7_">
		<path class="st0" d="M212.4,157.5c0,2,1.6,3.6,3.6,3.6s3.6-1.6,3.6-3.6"/>
	</g>
	<g id="LINE_5_">
		<line class="st0" x1="90" y1="117" x2="72" y2="117"/>
	</g>
	<g id="LINE_6_">
		<line class="st0" x1="90" y1="81" x2="72" y2="81"/>
	</g>
	<g id="LINE_7_">
		<line class="st0" x1="72" y1="81" x2="72" y2="117"/>
	</g>
	<g id="LINE_8_">
		<line class="st0" x1="90" y1="99" x2="90" y2="117"/>
	</g>
	<g id="LINE_9_">
		<line class="st0" x1="216" y1="117" x2="198" y2="117"/>
	</g>
	<g id="LINE_10_">
		<line class="st0" x1="216" y1="81" x2="198" y2="81"/>
	</g>
	<g id="LINE_11_">
		<line class="st0" x1="198" y1="99" x2="198" y2="117"/>
	</g>
	<g id="LINE_12_">
		<line class="st0" x1="216" y1="81" x2="216" y2="117"/>
	</g>
	<g id="LINE_13_">
		<line class="st0" x1="90" y1="81" x2="90" y2="99"/>
	</g>
	<g id="LINE_14_">
		<line class="st0" x1="198" y1="81" x2="198" y2="99"/>
	</g>
	<g id="LINE_15_">
		<line class="st0" x1="40.7" y1="36" x2="40.5" y2="36"/>
	</g>
	<g id="ARC_8_">
		<path class="st0" d="M40.7,36c0-2.6-2.1-4.7-4.7-4.7c-2.6,0-4.7,2.1-4.7,4.7"/>
	</g>
	<g id="ARC_9_">
		<path class="st0" d="M31.3,36c0,2.6,2.1,4.7,4.7,4.7c2.6,0,4.7-2.1,4.7-4.7"/>
	</g>
	<g id="ARC_10_">
		<path class="st0" d="M256.7,36c0-2.6-2.1-4.7-4.7-4.7s-4.7,2.1-4.7,4.7"/>
	</g>
	<g id="ARC_11_">
		<path class="st0" d="M247.3,36c0,2.6,2.1,4.7,4.7,4.7s4.7-2.1,4.7-4.7"/>
	</g>
	<g id="ARC_12_">
		<path class="st0" d="M40.7,252c0-2.6-2.1-4.7-4.7-4.7c-2.6,0-4.7,2.1-4.7,4.7"/>
	</g>
	<g id="ARC_13_">
		<path class="st0" d="M31.3,252c0,2.6,2.1,4.7,4.7,4.7c2.6,0,4.7-2.1,4.7-4.7"/>
	</g>
	<g id="ARC_14_">
		<path class="st0" d="M256.7,252c0-2.6-2.1-4.7-4.7-4.7s-4.7,2.1-4.7,4.7"/>
	</g>
	<g id="ARC_15_">
		<path class="st0" d="M247.3,252c0,2.6,2.1,4.7,4.7,4.7s4.7-2.1,4.7-4.7"/>
	</g>
	<g id="LINE_16_">
		<line class="st0" x1="18" y1="36" x2="18" y2="252"/>
	</g>
	<g id="LINE_17_">
		<line class="st0" x1="36" y1="18" x2="252" y2="18"/>
	</g>
	<g id="LINE_18_">
		<line class="st0" x1="270" y1="252" x2="270" y2="36"/>
	</g>
	<g id="LINE_19_">
		<line class="st0" x1="36" y1="270" x2="252" y2="270"/>
	</g>
	<g id="ARC_16_">
		<path class="st0" d="M36,18c-9.9,0-18,8.1-18,18"/>
	</g>
	<g id="ARC_17_">
		<path class="st0" d="M18,252c0,9.9,8.1,18,18,18"/>
	</g>
	<g id="ARC_18_">
		<path class="st0" d="M252,270c9.9,0,18-8.1,18-18"/>
	</g>
	<g id="ARC_19_">
		<path class="st0" d="M270,36c0-9.9-8.1-18-18-18"/>
	</g>
</g>
<text transform="matrix(1 0 0 1 130.9385 33.68)"><tspan x="0" y="0" class="st1 st2 st3">PiSpy</tspan><tspan x="-60.3" y="12" class="st1 st2 st3">Licensed under CERN-OHL-S v2</tspan><tspan x="-91.4" y="24" class="st1 st2 st3">Source location https://github.com/gpask/PiSpy</tspan></text>
</svg>
