<?xml version="1.0" encoding="utf-8"?>
<!-- Generator: Adobe Illustrator 24.3.0, SVG Export Plug-In . SVG Version: 6.00 Build 0)  -->
<svg version="1.1" id="_x30_" xmlns="http://www.w3.org/2000/svg" xmlns:xlink="http://www.w3.org/1999/xlink" x="0px" y="0px"
	 viewBox="0 0 288 288" style="enable-background:new 0 0 288 288;" xml:space="preserve">
<style type="text/css">
	.st0{fill:none;stroke:#000000;stroke-miterlimit:10;}
	.st1{fill:#FF0000;}
	.st2{font-family:'ArialMT';}
	.st3{font-size:10px;}
	.st4{fill:#333333;}
	.st5{fill:#FF4444;}
	.st6{font-family:'DejaVuSansMono';}
	.st7{font-size:12.0129px;}
</style>
<g>
	<g id="LINE">
		<line class="st0" x1="90" y1="216" x2="72" y2="216"/>
	</g>
	<g id="LINE_1_">
		<line class="st0" x1="90" y1="162" x2="72" y2="162"/>
	</g>
	<g id="LINE_2_">
		<line class="st0" x1="72" y1="162" x2="72" y2="216"/>
	</g>
	<g id="LINE_3_">
		<line class="st0" x1="90" y1="189" x2="90" y2="216"/>
	</g>
	<g id="LINE_4_">
		<line class="st0" x1="90" y1="162" x2="90" y2="189"/>
	</g>
	<g id="ARC">
		<path class="st0" d="M183.6,157.5c0-2-1.6-3.6-3.6-3.6s-3.6,1.6-3.6,3.6"/>
	</g>
	<g id="ARC_1_">
		<path class="st0" d="M176.4,157.5c0,2,1.6,3.6,3.6,3.6s3.6-1.6,3.6-3.6"/>
	</g>
	<g id="ARC_2_">
		<path class="st0" d="M183.6,220.5c0-2-1.6-3.6-3.6-3.6s-3.6,1.6-3.6,3.6"/>
	</g>
	<g id="ARC_3_">
		<path class="st0" d="M176.4,220.5c0,2,1.6,3.6,3.6,3.6s3.6-1.6,3.6-3.6"/>
	</g>
	<g id="ARC_4_">
		<path class="st0" d="M219.6,220.5c0-2-1.6-3.6-3.6-3.6s-3.6,1.6-3.6,3.6"/>
	</g>
	<g id="ARC_5_">
		<path class="st0" d="M212.4,220.5c0,2,1.6,3.6,3.6,3.6s3.6-1.6,3.6-3.6"/>
	</g>
	<g id="ARC_6_">
		<path class="st0" d="M219.6,157.5c0-2-1.6-3.6-3.6-3.6s-3.6,1.6-3.6,3.6"/>
	</g>
	<g id="ARC_7_">
		<path class="st0" d="M212.4,157.5c0,2,1.6,3.6,3.6,3.6s3.6-1.6,3.6-3.6"/>
	</g>
	<g id="LINE_5_">
		<line class="st0" x1="90" y1="117" x2="72" y2="117"/>
	</g>
	<g id="LINE_6_">
		<line class="st0" x1="90" y1="81" x2="72" y2="81"/>
	</g>
	<g id="LINE_7_">
		<line class="st0" x1="72" y1="81" x2="72" y2="117"/>
	</g>
	<g id="LINE_8_">
		<line class="st0" x1="90" y1="99" x2="90" y2="117"/>
	</g>
	<g id="LINE_9_">
		<line class="st0" x1="216" y1="117" x2="198" y2="117"/>
	</g>
	<g id="LINE_10_">
		<line class="st0" x1="216" y1="81" x2="198" y2="81"/>
	</g>
	<g id="LINE_11_">
		<line class="st0" x1="198" y1="99" x2="198" y2="117"/>
	</g>
	<g id="LINE_12_">
		<line class="st0" x1="216" y1="81" x2="216" y2="117"/>
	</g>
	<g id="LINE_13_">
		<line class="st0" x1="90" y1="81" x2="90" y2="99"/>
	</g>
	<g id="LINE_14_">
		<line class="st0" x1="198" y1="81" x2="198" y2="99"/>
	</g>
	<g id="LINE_15_">
		<line class="st0" x1="40.7" y1="36" x2="40.5" y2="36"/>
	</g>
	<g id="ARC_8_">
		<path class="st0" d="M40.7,36c0-2.6-2.1-4.7-4.7-4.7c-2.6,0-4.7,2.1-4.7,4.7"/>
	</g>
	<g id="ARC_9_">
		<path class="st0" d="M31.3,36c0,2.6,2.1,4.7,4.7,4.7c2.6,0,4.7-2.1,4.7-4.7"/>
	</g>
	<g id="ARC_10_">
		<path class="st0" d="M256.7,36c0-2.6-2.1-4.7-4.7-4.7s-4.7,2.1-4.7,4.7"/>
	</g>
	<g id="ARC_11_">
		<path class="st0" d="M247.3,36c0,2.6,2.1,4.7,4.7,4.7s4.7-2.1,4.7-4.7"/>
	</g>
	<g id="ARC_12_">
		<path class="st0" d="M40.7,252c0-2.6-2.1-4.7-4.7-4.7c-2.6,0-4.7,2.1-4.7,4.7"/>
	</g>
	<g id="ARC_13_">
		<path class="st0" d="M31.3,252c0,2.6,2.1,4.7,4.7,4.7c2.6,0,4.7-2.1,4.7-4.7"/>
	</g>
	<g id="ARC_14_">
		<path class="st0" d="M256.7,252c0-2.6-2.1-4.7-4.7-4.7s-4.7,2.1-4.7,4.7"/>
	</g>
	<g id="ARC_15_">
		<path class="st0" d="M247.3,252c0,2.6,2.1,4.7,4.7,4.7s4.7-2.1,4.7-4.7"/>
	</g>
	<g id="LINE_16_">
		<line class="st0" x1="18" y1="36" x2="18" y2="252"/>
	</g>
	<g id="LINE_17_">
		<line class="st0" x1="36" y1="18" x2="252" y2="18"/>
	</g>
	<g id="LINE_18_">
		<line class="st0" x1="270" y1="252" x2="270" y2="36"/>
	</g>
	<g id="LINE_19_">
		<line class="st0" x1="36" y1="270" x2="252" y2="270"/>
	</g>
	<g id="ARC_16_">
		<path class="st0" d="M36,18c-9.9,0-18,8.1-18,18"/>
	</g>
	<g id="ARC_17_">
		<path class="st0" d="M18,252c0,9.9,8.1,18,18,18"/>
	</g>
	<g id="ARC_18_">
		<path class="st0" d="M252,270c9.9,0,18-8.1,18-18"/>
	</g>
	<g id="ARC_19_">
		<path class="st0" d="M270,36c0-9.9-8.1-18-18-18"/>
	</g>
</g>
<text transform="matrix(1 0 0 1 130.9385 33.68)" class="st1 st2 st3">PiSpy</text>
<text transform="matrix(1 0 0 1 70.6385 45.68)" class="st1 st2 st3">Licensed under CERN-OHL-S v2</text>
<text transform="matrix(1 0 0 1 39.5385 57.68)" class="st1 st2 st3">Source location https://github.com/gpask/PiSpy</text>
<g transform="translate(-614.09 -142.78)">
	<g>
		<path class="st4" d="M731.8,212.7v1.1v22.1v1.1h1.1h50.4h1.1v-1.1v-23.2h-2.1l0,22.1H734v-20H775v-2.1h-42.1H731.8z"/>
		<path class="st4" d="M744.2,225.1c0-1.8-0.2-3.1-0.6-3.9c-0.4-0.8-1-1.2-1.8-1.2c-0.9,0-1.5,0.4-1.8,1.2c-0.4,0.8-0.6,2.1-0.6,3.9
			c0,1.8,0.2,3.1,0.6,3.9c0.4,0.8,1,1.2,1.8,1.2c0.9,0,1.5-0.4,1.8-1.2C744,228.2,744.2,226.9,744.2,225.1 M745.9,225.1
			c0,2.2-0.3,3.8-1,4.9c-0.7,1.1-1.7,1.6-3.1,1.6c-1.4,0-2.5-0.5-3.1-1.6s-1-2.7-1-4.9c0-2.2,0.3-3.8,1-4.9c0.7-1.1,1.7-1.6,3.1-1.6
			c1.4,0,2.5,0.5,3.1,1.6C745.6,221.3,745.9,222.9,745.9,225.1"/>
		<path class="st4" d="M755.3,219.3v1.7c-0.5-0.3-1-0.6-1.5-0.7c-0.5-0.2-1-0.3-1.6-0.3c-0.8,0-1.4,0.2-1.9,0.6
			c-0.5,0.4-0.7,0.9-0.7,1.5c0,0.6,0.2,1,0.5,1.3c0.3,0.3,0.9,0.5,1.7,0.7l0.9,0.2c1.2,0.3,2,0.7,2.6,1.3c0.5,0.6,0.8,1.4,0.8,2.4
			c0,1.2-0.4,2.1-1.1,2.7c-0.7,0.6-1.8,0.9-3.2,0.9c-0.6,0-1.2-0.1-1.8-0.2c-0.6-0.1-1.2-0.3-1.8-0.6V229c0.6,0.4,1.2,0.7,1.8,0.9
			c0.6,0.2,1.1,0.3,1.7,0.3c0.9,0,1.5-0.2,2-0.6c0.5-0.4,0.7-0.9,0.7-1.6c0-0.6-0.2-1.1-0.5-1.4c-0.3-0.3-0.9-0.6-1.7-0.8l-0.9-0.2
			c-1.2-0.3-2-0.7-2.5-1.2c-0.5-0.5-0.8-1.2-0.8-2.1c0-1.1,0.4-2,1.1-2.7c0.8-0.7,1.7-1,3-1c0.5,0,1,0.1,1.5,0.2
			C754.2,218.9,754.7,219,755.3,219.3"/>
		<path class="st4" d="M758.3,218.8h1.7v5.1h4.6v-5.1h1.7v12.5h-1.7v-5.9H760v5.9h-1.7V218.8"/>
	</g>
	<path class="st5" d="M767.4,218.8h1.6l1.2,10.1l1.4-6.7h1.8l1.4,6.7l4-19.4h1.6l-4.7,21.7h-1.6l-1.7-7.4l-1.7,7.4h-1.6L767.4,218.8
		"/>
	<text transform="matrix(1 0 0 1 732.7724 250.78)" class="st4 st6 st7">US002095</text>
</g>
</svg>
