<?xml version="1.0" encoding="utf-8"?>
<!-- Generator: Adobe Illustrator 24.3.0, SVG Export Plug-In . SVG Version: 6.00 Build 0)  -->
<svg version="1.1"
	 id="svg8" inkscape:version="0.92.3 (2405546, 2018-03-11)" sodipodi:docname="drawing.svg" xmlns:cc="http://creativecommons.org/ns#" xmlns:dc="http://purl.org/dc/elements/1.1/" xmlns:inkscape="http://www.inkscape.org/namespaces/inkscape" xmlns:rdf="http://www.w3.org/1999/02/22-rdf-syntax-ns#" xmlns:sodipodi="http://sodipodi.sourceforge.net/DTD/sodipodi-0.dtd" xmlns:svg="http://www.w3.org/2000/svg"
	 xmlns="http://www.w3.org/2000/svg" xmlns:xlink="http://www.w3.org/1999/xlink" x="0px" y="0px" viewBox="0 0 185 116.89"
	 style="enable-background:new 0 0 185 116.89;" xml:space="preserve">
<sodipodi:namedview  bordercolor="#666666" borderopacity="1.0" id="base" inkscape:current-layer="layer1" inkscape:cx="114.77807" inkscape:cy="41.785933" inkscape:document-units="mm" inkscape:pageopacity="0.0" inkscape:pageshadow="2" inkscape:window-height="1008" inkscape:window-maximized="0" inkscape:window-width="958" inkscape:window-x="953" inkscape:window-y="0" inkscape:zoom="2.8" pagecolor="#ffffff" showgrid="false">
	</sodipodi:namedview>
<g id="layer1" inkscape:groupmode="layer" inkscape:label="Layer 1">
	<path id="rect3713" inkscape:connector-curvature="0" d="M12.93,14.87v0.37v86.78h159.15V14.87H12.93z M13.68,15.62h157.65v85.65
		H13.68V15.62z"/>
	<path id="path3717" inkscape:connector-curvature="0" d="M42.1,82.38c-2.69,0-4.87,2.18-4.87,4.87s2.18,4.87,4.87,4.87
		c2.69,0,4.87-2.18,4.87-4.87S44.79,82.38,42.1,82.38z M42.1,82.75c2.48,0,4.49,2.01,4.49,4.49c0,2.48-2.01,4.49-4.49,4.49
		s-4.5-2.01-4.5-4.49C37.61,84.76,39.62,82.75,42.1,82.75z"/>
	<path id="path3717-7" inkscape:connector-curvature="0" d="M42.1,24.78c-2.69,0-4.87,2.18-4.87,4.87s2.18,4.87,4.87,4.87
		c2.69,0,4.87-2.18,4.87-4.87S44.79,24.78,42.1,24.78z M42.1,25.15c2.48,0,4.49,2.01,4.49,4.49s-2.01,4.5-4.49,4.5
		s-4.5-2.01-4.5-4.5S39.62,25.15,42.1,25.15z"/>
	<path id="path3717-3" inkscape:connector-curvature="0" d="M142.9,24.78c-2.69,0-4.87,2.18-4.87,4.87s2.19,4.87,4.87,4.87
		c2.69,0,4.87-2.18,4.87-4.87S145.59,24.78,142.9,24.78z M142.9,25.15c2.48,0,4.49,2.01,4.49,4.49s-2.01,4.5-4.49,4.5
		c-2.48,0-4.5-2.01-4.5-4.5S140.42,25.15,142.9,25.15z"/>
	<path id="path3717-8" inkscape:connector-curvature="0" d="M142.9,82.38c-2.69,0-4.87,2.18-4.87,4.87s2.19,4.87,4.87,4.87
		c2.69,0,4.87-2.18,4.87-4.87S145.59,82.38,142.9,82.38z M142.9,82.75c2.48,0,4.49,2.01,4.49,4.49c0,2.48-2.01,4.49-4.49,4.49
		c-2.48,0-4.5-2.01-4.5-4.49C138.41,84.76,140.42,82.75,142.9,82.75z"/>
</g>
</svg>
