G04 Generated by Ultiboard 14.0 *
%FSLAX33Y33*%
%MOMM*%

%ADD10C,0.001*%
%ADD11C,0.254*%
%ADD12C,0.635*%
%ADD13C,1.600*%


G04 ColorRGB 00FF00 for the following layer *
%LNCopper Bottom*%
%LPD*%
G54D10*
G36*
X55497Y30097D02*
X55497Y30097D01*
X383Y30097D01*
X383Y383D01*
X55497Y383D01*
X55497Y30097D01*
D02*
G37*
%LPC*%
G36*
X8129Y5080D02*
G75*
D01*
G02X8129Y5080I2031J0*
G01*
D02*
G37*
G36*
X43689Y5080D02*
G75*
D01*
G02X43689Y5080I2031J0*
G01*
D02*
G37*
G36*
X3976Y14389D02*
G74*
D01*
G02X4661Y15074I1103J418*
G01*
X4661Y15074D01*
X4661Y14389D01*
X3976Y14389D01*
D02*
G37*
G36*
X5499Y15074D02*
G74*
D01*
G02X6184Y14389I418J1103*
G01*
X6184Y14389D01*
X5499Y14389D01*
X5499Y15074D01*
D02*
G37*
G36*
X6184Y13551D02*
G74*
D01*
G02X5499Y12866I1103J418*
G01*
X5499Y12866D01*
X5499Y13551D01*
X6184Y13551D01*
D02*
G37*
G36*
X4661Y12866D02*
G74*
D01*
G02X3976Y13551I418J1103*
G01*
X3976Y13551D01*
X4661Y13551D01*
X4661Y12866D01*
D02*
G37*
G36*
X4580Y13970D02*
G75*
D01*
G02X4580Y13970I500J0*
G01*
D02*
G37*
G36*
X3899Y19050D02*
G75*
D01*
G02X3899Y19050I1181J0*
G01*
D02*
G37*
G36*
X49619Y11430D02*
G75*
D01*
G02X49619Y11430I1181J0*
G01*
D02*
G37*
G36*
X49696Y16929D02*
G74*
D01*
G02X50381Y17614I1103J418*
G01*
X50381Y17614D01*
X50381Y16929D01*
X49696Y16929D01*
D02*
G37*
G36*
X51219Y17614D02*
G74*
D01*
G02X51904Y16929I418J1103*
G01*
X51904Y16929D01*
X51219Y16929D01*
X51219Y17614D01*
D02*
G37*
G36*
X51904Y16091D02*
G74*
D01*
G02X51219Y15406I1103J418*
G01*
X51219Y15406D01*
X51219Y16091D01*
X51904Y16091D01*
D02*
G37*
G36*
X50381Y15406D02*
G74*
D01*
G02X49696Y16091I418J1103*
G01*
X49696Y16091D01*
X50381Y16091D01*
X50381Y15406D01*
D02*
G37*
G36*
X50300Y16510D02*
G75*
D01*
G02X50300Y16510I500J0*
G01*
D02*
G37*
G36*
X27167Y17006D02*
X27167Y17006D01*
X29501Y14672D01*
X49850Y14672D01*
G75*
D01*
G02X49850Y13268I950J-702*
G01*
X49850Y13268D01*
X29211Y13268D01*
G75*
D01*
G02X28714Y13474I0J702*
G01*
X28714Y13474D01*
X26379Y15808D01*
X6030Y15808D01*
G75*
D01*
G02X6030Y17212I-950J702*
G01*
X6030Y17212D01*
X26670Y17212D01*
G74*
D01*
G02X27167Y17006I0J702*
G01*
D02*
G37*
G36*
X50027Y22086D02*
X50027Y22086D01*
X51296Y20817D01*
G74*
D01*
G02X51502Y20320I496J497*
G01*
X51502Y20320D01*
X51502Y20000D01*
G75*
D01*
G02X50098Y20000I-702J-950*
G01*
X50098Y20000D01*
X50098Y20029D01*
X49239Y20888D01*
X4101Y20888D01*
X3242Y20029D01*
X3242Y12991D01*
X4101Y12132D01*
X4130Y12132D01*
G75*
D01*
G02X4130Y10728I950J-702*
G01*
X4130Y10728D01*
X3810Y10728D01*
G75*
D01*
G02X3607Y10758I0J702*
G01*
G74*
D01*
G02X3314Y10934I204J671*
G01*
X3314Y10934D01*
X2044Y12204D01*
G75*
D01*
G02X1838Y12701I495J496*
G01*
X1838Y12701D01*
X1838Y20319D01*
G75*
D01*
G02X2044Y20816I702J0*
G01*
X2044Y20816D01*
X3314Y22086D01*
G75*
D01*
G02X3811Y22292I496J-495*
G01*
X3811Y22292D01*
X49529Y22292D01*
G75*
D01*
G02X49678Y22276I0J-702*
G01*
G74*
D01*
G02X50027Y22086I147J685*
G01*
D02*
G37*
G36*
X8129Y25400D02*
G75*
D01*
G02X8129Y25400I2031J0*
G01*
D02*
G37*
G36*
X43689Y25400D02*
G75*
D01*
G02X43689Y25400I2031J0*
G01*
D02*
G37*
%LPD*%
G54D11*
X8129Y5080D02*
G75*
D01*
G02X8129Y5080I2031J0*
G01*
X43689Y5080D02*
G75*
D01*
G02X43689Y5080I2031J0*
G01*
X3976Y14389D02*
G74*
D01*
G02X4661Y15074I1103J418*
G01*
X4661Y14389D01*
X3976Y14389D01*
X5499Y15074D02*
G74*
D01*
G02X6184Y14389I418J1103*
G01*
X5499Y14389D01*
X5499Y15074D01*
X6184Y13551D02*
G74*
D01*
G02X5499Y12866I1103J418*
G01*
X5499Y13551D01*
X6184Y13551D01*
X4661Y12866D02*
G74*
D01*
G02X3976Y13551I418J1103*
G01*
X4661Y13551D01*
X4661Y12866D01*
X4580Y13970D02*
G75*
D01*
G02X4580Y13970I500J0*
G01*
X3899Y19050D02*
G75*
D01*
G02X3899Y19050I1181J0*
G01*
X49619Y11430D02*
G75*
D01*
G02X49619Y11430I1181J0*
G01*
X49696Y16929D02*
G74*
D01*
G02X50381Y17614I1103J418*
G01*
X50381Y16929D01*
X49696Y16929D01*
X51219Y17614D02*
G74*
D01*
G02X51904Y16929I418J1103*
G01*
X51219Y16929D01*
X51219Y17614D01*
X51904Y16091D02*
G74*
D01*
G02X51219Y15406I1103J418*
G01*
X51219Y16091D01*
X51904Y16091D01*
X50381Y15406D02*
G74*
D01*
G02X49696Y16091I418J1103*
G01*
X50381Y16091D01*
X50381Y15406D01*
X50300Y16510D02*
G75*
D01*
G02X50300Y16510I500J0*
G01*
X27167Y17006D02*
X29501Y14672D01*
X49850Y14672D01*
G75*
D01*
G02X49850Y13268I950J-702*
G01*
X29211Y13268D01*
G75*
D01*
G02X28714Y13474I0J702*
G01*
X26379Y15808D01*
X6030Y15808D01*
G75*
D01*
G02X6030Y17212I-950J702*
G01*
X26670Y17212D01*
G74*
D01*
G02X27167Y17006I0J702*
G01*
X50027Y22086D02*
X51296Y20817D01*
G74*
D01*
G02X51502Y20320I496J497*
G01*
X51502Y20000D01*
G75*
D01*
G02X50098Y20000I-702J-950*
G01*
X50098Y20029D01*
X49239Y20888D01*
X4101Y20888D01*
X3242Y20029D01*
X3242Y12991D01*
X4101Y12132D01*
X4130Y12132D01*
G75*
D01*
G02X4130Y10728I950J-702*
G01*
X3810Y10728D01*
G75*
D01*
G02X3607Y10758I0J702*
G01*
G74*
D01*
G02X3314Y10934I204J671*
G01*
X2044Y12204D01*
G75*
D01*
G02X1838Y12701I495J496*
G01*
X1838Y20319D01*
G75*
D01*
G02X2044Y20816I702J0*
G01*
X3314Y22086D01*
G75*
D01*
G02X3811Y22292I496J-495*
G01*
X49529Y22292D01*
G75*
D01*
G02X49678Y22276I0J-702*
G01*
G74*
D01*
G02X50027Y22086I147J685*
G01*
X8129Y25400D02*
G75*
D01*
G02X8129Y25400I2031J0*
G01*
X43689Y25400D02*
G75*
D01*
G02X43689Y25400I2031J0*
G01*
X55497Y30097D02*
X383Y30097D01*
X383Y383D01*
X55497Y383D01*
X55497Y30097D01*
G54D12*
X5080Y16510D02*
X26670Y16510D01*
X29210Y13970D01*
X50800Y13970D01*
X50800Y19050D02*
X50800Y20320D01*
X49530Y21590D01*
X5080Y11430D02*
X3810Y11430D01*
X3810Y21590D02*
X49530Y21590D01*
X2540Y12700D02*
X2540Y20320D01*
X3810Y11430D02*
X2540Y12700D01*
X2540Y20320D02*
X3810Y21590D01*
G54D13*
X5080Y19050D03*
X5080Y13970D03*
X5080Y16510D03*
X5080Y11430D03*
X50800Y16510D03*
X50800Y11430D03*
X50800Y19050D03*
X50800Y13970D03*

M02*
