G04 Generated by Ultiboard 14.0 *
%FSLAX33Y33*%
%MOMM*%

%ADD10C,0.001*%
%ADD11C,3.300*%
%ADD12R,1.500X1.500*%
%ADD13R,1.750X1.050*%
%ADD14R,0.600X1.050*%
%ADD15R,1.050X1.400*%
%ADD16C,1.600*%


G04 ColorRGB FF00CC for the following layer *
%LNSolder Mask Top*%
%LPD*%
G54D10*
G54D11*
X10160Y25400D03*
X10160Y5080D03*
X45720Y25400D03*
X45720Y5080D03*
G54D12*
X17780Y20600D03*
X17780Y17500D03*
X22860Y20600D03*
X22860Y17500D03*
X27940Y20600D03*
X27940Y17500D03*
X33020Y20600D03*
X33020Y17500D03*
X38100Y20600D03*
X38100Y17500D03*
X17780Y12980D03*
X17780Y9880D03*
X22860Y12980D03*
X22860Y9880D03*
X27940Y12980D03*
X27940Y9880D03*
X33020Y12980D03*
X33020Y9880D03*
X38100Y12980D03*
X38100Y9880D03*
G54D13*
X17780Y23900D03*
X17780Y26900D03*
X22860Y23900D03*
X22860Y26900D03*
X27940Y23900D03*
X27940Y26900D03*
X33020Y23900D03*
X33020Y26900D03*
X38100Y23900D03*
X38100Y26900D03*
X17780Y3580D03*
X17780Y6580D03*
X22860Y3580D03*
X22860Y6580D03*
X27940Y3580D03*
X27940Y6580D03*
X33020Y3580D03*
X33020Y6580D03*
X38100Y3580D03*
X38100Y6580D03*
G54D14*
X11750Y16630D03*
X13650Y16630D03*
X12700Y18930D03*
X43180Y11550D03*
X42230Y13850D03*
X44130Y13850D03*
G54D15*
X11750Y11430D03*
X13650Y11430D03*
X42230Y19050D03*
X44130Y19050D03*
G54D16*
X5080Y19050D03*
X5080Y13970D03*
X5080Y16510D03*
X5080Y11430D03*
X50800Y16510D03*
X50800Y11430D03*
X50800Y19050D03*
X50800Y13970D03*

M02*
