<?xml version="1.0" encoding="utf-8"?>
<!-- Generator: Adobe Illustrator 25.2.0, SVG Export Plug-In . SVG Version: 6.00 Build 0)  -->
<svg version="1.1"
	 id="svg8" inkscape:version="0.92.3 (2405546, 2018-03-11)" sodipodi:docname="drawing.svg" xmlns:cc="http://creativecommons.org/ns#" xmlns:dc="http://purl.org/dc/elements/1.1/" xmlns:inkscape="http://www.inkscape.org/namespaces/inkscape" xmlns:rdf="http://www.w3.org/1999/02/22-rdf-syntax-ns#" xmlns:sodipodi="http://sodipodi.sourceforge.net/DTD/sodipodi-0.dtd" xmlns:svg="http://www.w3.org/2000/svg"
	 xmlns="http://www.w3.org/2000/svg" xmlns:xlink="http://www.w3.org/1999/xlink" x="0px" y="0px" viewBox="0 0 185 116.9"
	 style="enable-background:new 0 0 185 116.9;" xml:space="preserve">
<style type="text/css">
	.st0{fill:#FF0000;}
	.st1{font-family:'ArialMT';}
	.st2{font-size:5px;}
</style>
<sodipodi:namedview  bordercolor="#666666" borderopacity="1.0" id="base" inkscape:current-layer="layer1" inkscape:cx="114.77807" inkscape:cy="41.785933" inkscape:document-units="mm" inkscape:pageopacity="0.0" inkscape:pageshadow="2" inkscape:window-height="1008" inkscape:window-maximized="0" inkscape:window-width="958" inkscape:window-x="953" inkscape:window-y="0" inkscape:zoom="2.8" pagecolor="#ffffff" showgrid="false">
	</sodipodi:namedview>
<g id="layer1" inkscape:groupmode="layer" inkscape:label="Layer 1">
	<path id="rect3713" inkscape:connector-curvature="0" d="M12.9,7.5v0.4v86.8h159.1V7.5H12.9z M13.7,8.2h157.6v85.7H13.7V8.2z"/>
	<path id="path3717" inkscape:connector-curvature="0" d="M42.1,75c-2.7,0-4.9,2.2-4.9,4.9s2.2,4.9,4.9,4.9s4.9-2.2,4.9-4.9
		S44.8,75,42.1,75z M42.1,75.4c2.5,0,4.5,2,4.5,4.5c0,2.5-2,4.5-4.5,4.5s-4.5-2-4.5-4.5C37.6,77.4,39.6,75.4,42.1,75.4z"/>
	<path id="path3717-7" inkscape:connector-curvature="0" d="M42.1,17.4c-2.7,0-4.9,2.2-4.9,4.9s2.2,4.9,4.9,4.9S47,25,47,22.3
		S44.8,17.4,42.1,17.4z M42.1,17.8c2.5,0,4.5,2,4.5,4.5s-2,4.5-4.5,4.5s-4.5-2-4.5-4.5S39.6,17.8,42.1,17.8z"/>
	<path id="path3717-3" inkscape:connector-curvature="0" d="M142.9,17.4c-2.7,0-4.9,2.2-4.9,4.9s2.2,4.9,4.9,4.9
		c2.7,0,4.9-2.2,4.9-4.9S145.6,17.4,142.9,17.4z M142.9,17.8c2.5,0,4.5,2,4.5,4.5s-2,4.5-4.5,4.5c-2.5,0-4.5-2-4.5-4.5
		S140.4,17.8,142.9,17.8z"/>
	<path id="path3717-8" inkscape:connector-curvature="0" d="M142.9,75c-2.7,0-4.9,2.2-4.9,4.9s2.2,4.9,4.9,4.9
		c2.7,0,4.9-2.2,4.9-4.9S145.6,75,142.9,75z M142.9,75.4c2.5,0,4.5,2,4.5,4.5c0,2.5-2,4.5-4.5,4.5c-2.5,0-4.5-2-4.5-4.5
		C138.4,77.4,140.4,75.4,142.9,75.4z"/>
</g>
<text transform="matrix(1 0 0 1 97.5488 100.88)"><tspan x="0" y="0" class="st0 st1 st2">PiSpy</tspan><tspan x="-30.2" y="6" class="st0 st1 st2">Licensed under CERN-OHL-S v2</tspan><tspan x="-45.7" y="12" class="st0 st1 st2">Source location https://github.com/gpask/PiSpy</tspan></text>
</svg>
